<svg width="272" height="111" viewBox="0 0 272 111" fill="none" xmlns="http://www.w3.org/2000/svg">
<rect width="272" height="111" fill="white"/>
<path d="M247.722 4V20.2M215.278 4V20.2M195 36.4H268M203.111 12.1H259.889C264.369 12.1 268 15.7265 268 20.2V76.9C268 81.3735 264.369 85 259.889 85H203.111C198.631 85 195 81.3735 195 76.9V20.2C195 15.7265 198.631 12.1 203.111 12.1Z" stroke="url(#paint0_linear)" stroke-width="8" stroke-linecap="round" stroke-linejoin="round"/>
<mask id="path-2-outside-1" maskUnits="userSpaceOnUse" x="0.882812" y="19.7266" width="224" height="91" fill="black">
<rect fill="white" x="0.882812" y="19.7266" width="224" height="91"/>
<path d="M40.668 38.1367C40.668 36.168 39.4961 35.1836 37.1523 35.1836C32.6758 35.1836 28.6094 37.2578 24.9531 41.4062C22.7969 43.8438 21.2852 46.4805 20.418 49.3164C19.9961 50.6992 19.7852 51.918 19.7852 52.9727C19.7852 54.0273 19.9023 54.8711 20.1367 55.5039C20.3945 56.1133 20.7109 56.6172 21.0859 57.0156C21.8828 57.8594 22.8086 58.1875 23.8633 58C25.0117 57.5312 26.0195 57.2969 26.8867 57.2969C27.7773 57.2969 28.4805 57.4141 28.9961 57.6484C29.5352 57.8594 29.9688 58.1289 30.2969 58.457C30.9766 59.1133 31.3164 59.7461 31.3164 60.3555C31.3164 61.5508 30.918 62.1719 30.1211 62.2188C28.9023 62.3359 27.625 62.6758 26.2891 63.2383C24.9531 63.8008 23.6055 64.5391 22.2461 65.4531C20.8867 66.3438 19.6797 67.3516 18.625 68.4766C16.2109 71.0547 15.0039 73.6445 15.0039 76.2461C15.0039 77.4883 15.2969 78.4258 15.8828 79.0586C16.8672 80.1602 18.0391 80.7109 19.3984 80.7109C20.7578 80.7109 22.082 80.4531 23.3711 79.9375C24.6836 79.3984 25.8672 78.7539 26.9219 78.0039C28.5156 76.8555 30.0625 75.3906 31.5625 73.6094C32.3125 72.7188 32.9688 72.2734 33.5312 72.2734C34.0938 72.2734 34.5156 72.6133 34.7969 73.293C35.1016 73.9492 35.2539 74.6523 35.2539 75.4023C35.2539 76.9492 34.9609 78.0977 34.375 78.8477C33.7891 79.5742 33.0508 80.3125 32.1602 81.0625C31.293 81.7891 30.25 82.4688 29.0312 83.1016C26.1016 84.6016 22.9609 85.3516 19.6094 85.3516C13.9609 85.3516 10.0938 83.5 8.00781 79.7969C7.25781 78.4141 6.88281 76.9961 6.88281 75.543C6.88281 74.0898 7.09375 72.7422 7.51562 71.5C7.96094 70.2578 8.52344 69.1094 9.20312 68.0547C9.88281 66.9766 10.6445 66.0156 11.4883 65.1719C12.332 64.3047 13.1641 63.5547 13.9844 62.9219C15.6016 61.6562 16.9375 60.9414 17.9922 60.7773C15.3438 59.7227 13.5625 57.6719 12.6484 54.625C12.3672 53.6406 12.2266 52.4453 12.2266 51.0391C12.2266 49.6328 12.4961 48.0859 13.0352 46.3984C13.5742 44.6875 14.3359 43.0586 15.3203 41.5117C16.3047 39.9414 17.4766 38.4766 18.8359 37.1172C20.1953 35.7578 21.6953 34.5742 23.3359 33.5664C26.875 31.4102 30.6016 30.332 34.5156 30.332C38.6172 30.332 41.6758 31.3516 43.6914 33.3906C45.3086 35.0312 46.1172 37.1289 46.1172 39.6836C46.1172 42.5898 44.8984 45.5312 42.4609 48.5078C40.9844 50.2891 39.6484 51.4961 38.4531 52.1289C37.2812 52.7617 36.3555 53.1133 35.6758 53.1836C35.0195 53.2305 34.3984 53.1484 33.8125 52.9375C33.25 52.7031 32.7578 52.3984 32.3359 52.0234C31.375 51.1562 30.8945 50.3711 30.8945 49.668C30.8945 48.8008 31.1992 48.1328 31.8086 47.6641L34.9727 45.4141C38.7695 42.625 40.668 40.1992 40.668 38.1367Z"/>
<path d="M40.135 81.5898C39.7834 80.8164 39.6077 79.9023 39.6077 78.8477C39.6077 77.793 39.7717 76.6328 40.0998 75.3672C40.428 74.0781 40.8498 72.7656 41.3655 71.4297C41.8811 70.0938 42.4553 68.7344 43.0881 67.3516L44.8811 63.2734C47.2014 57.9062 48.0569 54.7422 47.4475 53.7812C47.1662 53.3359 46.6272 52.8906 45.8303 52.4453C45.5725 52.2812 45.4436 52 45.4436 51.6016C45.4436 51.1797 45.6077 50.7812 45.9358 50.4062C46.2873 50.0312 46.7444 49.7031 47.3069 49.4219C48.4319 48.8828 49.5686 48.6133 50.717 48.6133C51.8655 48.6133 52.7327 48.7422 53.3186 49C53.928 49.2344 54.4319 49.5391 54.8303 49.9141C55.5803 50.6875 55.9553 51.625 55.9553 52.7266C55.9553 53.8281 55.7444 55.0703 55.3225 56.4531C54.9006 57.8359 54.3733 59.2891 53.7405 60.8125C53.1077 62.3359 52.4162 63.8945 51.6662 65.4883L49.592 70.0938C48.1155 73.4922 47.3772 75.7422 47.3772 76.8438C47.3772 79 48.1389 80.0781 49.6623 80.0781C53.5764 80.0781 57.2444 77.7578 60.6662 73.1172C62.6584 70.4219 64.0881 67.4922 64.9553 64.3281C65.3537 62.8281 65.553 61.4688 65.553 60.25C65.553 59.0078 65.5061 57.9766 65.4123 57.1562C65.342 56.3359 65.2131 55.6094 65.0256 54.9766C64.7209 53.8516 64.2053 52.8789 63.4787 52.0586C62.9866 51.4492 63.2092 50.7344 64.1467 49.9141C65.178 49.0469 66.6428 48.6133 68.5412 48.6133C69.7131 48.6133 70.7444 49.1641 71.635 50.2656C72.76 51.5781 73.3225 53.4648 73.3225 55.9258C73.3225 58.3633 72.9592 60.7656 72.2327 63.1328C71.5061 65.4766 70.51 67.7383 69.2444 69.918C67.9787 72.0742 66.4787 74.0898 64.7444 75.9648C63.0334 77.8398 61.1819 79.4688 59.1897 80.8516C54.9241 83.8516 50.6584 85.3516 46.3928 85.3516C43.3225 85.3516 41.2366 84.0977 40.135 81.5898Z"/>
<path d="M73.8794 72.6953C73.9731 70.6562 74.313 68.7109 74.8989 66.8594C75.4848 64.9844 76.27 63.1797 77.2544 61.4453C78.2387 59.6875 79.3872 58.0352 80.6997 56.4883C82.0356 54.918 83.477 53.5469 85.0239 52.375C88.3755 49.8672 91.7622 48.6133 95.1841 48.6133C99.1919 48.6133 101.864 50.2656 103.2 53.5703C103.668 54.6953 103.891 56.0312 103.868 57.5781C103.844 59.1016 103.551 60.5195 102.989 61.832C102.426 63.1211 101.641 64.3047 100.633 65.3828C99.6489 66.4375 98.4653 67.3867 97.0825 68.2305C95.7231 69.0742 94.2348 69.7891 92.6177 70.375C89.2895 71.5469 85.727 72.1562 81.9302 72.2031C81.8364 72.5312 81.7778 73.0234 81.7544 73.6797C81.7309 74.3359 81.8012 75.0742 81.9653 75.8945C82.1294 76.6914 82.4106 77.4062 82.8091 78.0391C83.6528 79.4453 84.8716 80.1484 86.4653 80.1484C89.1841 80.1484 91.8325 79.3516 94.4106 77.7578C95.3247 77.2188 96.063 76.668 96.6255 76.1055C97.2114 75.5195 97.7153 75.2266 98.1372 75.2266C98.5591 75.2266 98.9223 75.4844 99.227 76C99.5552 76.4922 99.7192 77.0547 99.7192 77.6875C99.7192 78.9297 99.3677 80.0078 98.6645 80.9219C95.7114 83.875 91.3169 85.3516 85.4809 85.3516C82.0356 85.3516 79.27 84.3203 77.1841 82.2578C74.8403 79.9141 73.7387 76.7266 73.8794 72.6953ZM94.4106 53.2891C91.9497 53.2891 89.5825 54.9766 87.3091 58.3516C85.3872 61.2578 83.8403 64.7031 82.6684 68.6875C86.5825 68.2891 89.9809 66.7422 92.8637 64.0469C95.5122 61.5156 96.8364 59.0898 96.8364 56.7695C96.8364 54.4492 96.0278 53.2891 94.4106 53.2891Z"/>
<path d="M129.596 55.2578C128.87 55.2578 127.839 55.9609 126.503 57.3672C125.167 58.75 124.007 60.0156 123.022 61.1641L120.034 64.75L114.268 72.0977C112.909 74.6758 111.842 76.8203 111.069 78.5312L109.171 82.6094C108.678 83.6172 108.245 84.332 107.87 84.7539C107.518 85.1523 107.026 85.3516 106.393 85.3516C105.784 85.3516 105.186 85.2344 104.6 85C104.038 84.7891 103.546 84.5078 103.124 84.1562C102.233 83.4062 101.788 82.5859 101.788 81.6953C101.788 81.3438 102.046 80.6523 102.561 79.6211L103.897 76.7734C104.319 75.9297 104.811 74.8516 105.374 73.5391L107.342 68.7227C110.108 61.8086 111.491 57.3438 111.491 55.3281C111.491 54.25 111.139 53.4531 110.436 52.9375L109.733 52.4453C109.499 52.2812 109.382 52 109.382 51.6016C109.382 51.1797 109.534 50.7812 109.839 50.4062C110.167 50.0312 110.589 49.7031 111.104 49.4219C112.159 48.8828 113.214 48.6133 114.268 48.6133C115.346 48.6133 116.178 48.7305 116.764 48.9648C117.35 49.1992 117.842 49.5156 118.241 49.9141C119.108 50.7344 119.542 51.5898 119.542 52.4805C119.542 53.3711 119.425 54.2734 119.19 55.1875C118.979 56.0781 118.698 56.9922 118.346 57.9297C118.018 58.8438 117.667 59.7461 117.292 60.6367C116.917 61.5273 116.577 62.3008 116.272 62.957L115.569 64.4688C115.382 64.8438 115.335 64.9609 115.428 64.8203C118.03 61.2109 119.741 58.8906 120.561 57.8594L123.022 54.9062C124.827 52.7969 126.245 51.4023 127.276 50.7227C129.362 49.3164 131.003 48.6133 132.198 48.6133C133.393 48.6133 134.401 48.7656 135.221 49.0703C136.042 49.375 136.757 49.8086 137.366 50.3711C138.655 51.5664 139.3 53.0898 139.3 54.9414C139.3 56.793 138.878 58.7266 138.034 60.7422C137.19 62.7578 136.452 64.3984 135.819 65.6641C135.21 66.9062 134.624 68.1719 134.061 69.4609C132.303 73.375 131.425 76.2227 131.425 78.0039C131.425 78.8008 132.057 79.1992 133.323 79.1992C134.307 79.1992 135.198 78.9883 135.995 78.5664C136.815 78.1445 137.342 77.9336 137.577 77.9336C138.069 77.9336 138.315 78.1797 138.315 78.6719C138.315 80.7578 137.249 82.5039 135.116 83.9102C133.686 84.8711 132.374 85.3516 131.178 85.3516C129.983 85.3516 128.987 85.2227 128.19 84.9648C127.417 84.707 126.725 84.2969 126.116 83.7344C124.733 82.4922 124.042 80.7578 124.042 78.5312C124.042 75.8125 124.897 72.4141 126.608 68.3359C127.85 65.5469 128.729 63.6367 129.245 62.6055L130.44 60.1094C131.167 58.6094 131.53 57.4258 131.53 56.5586C131.53 55.6914 130.885 55.2578 129.596 55.2578Z"/>
<path d="M161.899 75.7891C162.579 75.7891 162.919 76.2461 162.919 77.1602C162.919 77.9336 162.685 78.6836 162.216 79.4102C161.583 80.7695 160.317 82.0586 158.419 83.2773C156.263 84.6602 154.095 85.3516 151.915 85.3516C148.142 85.3516 145.751 83.6641 144.743 80.2891C143.548 76.2812 145.341 67.7852 150.122 54.8008C147.427 54.5664 145.962 54.0977 145.727 53.3945C145.657 53.1836 145.622 52.9609 145.622 52.7266C145.622 52.4688 145.727 52.1758 145.938 51.8477C146.173 51.5195 146.466 51.2031 146.817 50.8984C147.638 50.2188 148.47 49.8789 149.313 49.8789H152.091C154.622 43.9492 156.427 40.5742 157.505 39.7539C158.02 39.3789 158.595 39.1914 159.227 39.1914C159.86 39.1914 160.388 39.2734 160.81 39.4375C161.231 39.6016 161.606 39.8359 161.935 40.1406C162.685 40.8438 163.06 41.6289 163.06 42.4961C163.06 42.9648 162.919 43.5039 162.638 44.1133L160.036 49.7734H160.88C162.333 49.7734 163.505 49.7617 164.395 49.7383C164.395 49.7383 165.063 49.7266 166.399 49.7031C166.845 49.6797 167.395 49.668 168.052 49.668C168.731 49.668 169.071 49.9141 169.071 50.4062C169.071 53.5 165.415 55.0469 158.102 55.0469H157.821L155.431 61.2344C152.735 68.5469 151.388 73.668 151.388 76.5977C151.388 77.418 151.575 78.0625 151.95 78.5312C152.325 78.9766 153.028 79.1992 154.06 79.1992C155.091 79.1992 156.028 79.0234 156.872 78.6719C157.716 78.3203 158.454 77.9336 159.087 77.5117C159.72 77.0664 160.259 76.668 160.704 76.3164C161.173 75.9648 161.571 75.7891 161.899 75.7891Z"/>
<path d="M165.796 83.5938C165.21 82.9844 164.73 82.2109 164.355 81.2734C164.003 80.3125 163.827 79.2109 163.827 77.9688C163.827 76.7031 164.109 75.0156 164.671 72.9062C165.257 70.7969 165.995 68.3945 166.886 65.6992L169.839 56.9453C174.034 44.7578 176.46 35.3359 177.116 28.6797C177.327 26.7109 178.288 25.7266 179.999 25.7266C181.077 25.7266 181.968 25.9844 182.671 26.5C184.03 27.5312 184.687 28.6797 184.64 29.9453C184.593 31.2109 184.37 32.7578 183.972 34.5859C183.573 36.3906 183.058 38.3711 182.425 40.5273C181.792 42.6602 181.066 44.9219 180.245 47.3125L175.394 61.5859C172.605 69.6953 171.21 74.9336 171.21 77.3008C171.21 78.5664 171.726 79.1992 172.757 79.1992C173.741 79.1992 174.632 78.9883 175.429 78.5664C176.249 78.1445 176.777 77.9336 177.011 77.9336C177.503 77.9336 177.749 78.1797 177.749 78.6719C177.749 80.7578 176.683 82.5039 174.55 83.9102C173.12 84.8711 171.808 85.3516 170.613 85.3516C169.441 85.3516 168.491 85.2109 167.765 84.9297C167.038 84.6484 166.382 84.2031 165.796 83.5938Z"/>
<path d="M180.872 81.5898C180.591 80.8164 180.451 79.9375 180.451 78.9531C180.451 77.9453 180.615 76.832 180.943 75.6133C181.294 74.3711 181.74 73.082 182.279 71.7461C182.818 70.4102 183.404 69.0391 184.037 67.6328L185.935 63.4141C188.372 58 189.275 54.7891 188.642 53.7812C188.361 53.3359 187.833 52.8906 187.06 52.4453C186.779 52.2812 186.638 52 186.638 51.6016C186.638 51.1797 186.802 50.7812 187.13 50.4062C187.482 50.0312 187.927 49.7031 188.466 49.4219C189.615 48.8828 190.763 48.6133 191.912 48.6133C193.06 48.6133 193.927 48.7422 194.513 49C195.122 49.2344 195.615 49.5391 195.99 49.9141C196.763 50.6875 197.15 51.543 197.15 52.4805C197.15 53.418 196.997 54.4727 196.693 55.6445C196.388 56.793 195.99 58.0469 195.497 59.4062C195.005 60.7656 194.466 62.1719 193.88 63.625C192.263 67.4219 191.173 69.9297 190.611 71.1484L189.31 73.8555C188.583 75.4727 188.22 76.6094 188.22 77.2656C188.22 77.9219 188.326 78.3906 188.537 78.6719C188.747 78.9297 189.122 79.0586 189.662 79.0586C190.224 79.0586 190.833 78.8477 191.49 78.4258C192.169 78.0039 192.896 77.4414 193.669 76.7383C194.443 76.0352 195.24 75.2266 196.06 74.3125C196.904 73.375 197.724 72.4023 198.521 71.3945C200.607 68.8164 202.154 66.6016 203.162 64.75C208.224 55.4219 210.908 50.5469 211.212 50.125C211.986 49.1172 212.759 48.6133 213.533 48.6133C214.33 48.6133 215.021 48.707 215.607 48.8945C216.193 49.0586 216.697 49.3047 217.119 49.6328C218.056 50.3125 218.337 51.0742 217.962 51.918C217.611 52.7617 217.177 53.9219 216.662 55.3984C212.208 68.3125 209.314 76.3633 207.978 79.5508C206.665 82.7383 205.517 85.293 204.533 87.2148C203.548 89.1602 202.388 91.1172 201.052 93.0859C199.74 95.0547 198.333 96.8477 196.833 98.4648C193.412 102.121 190.201 104.078 187.201 104.336C186.052 104.43 185.138 104.266 184.458 103.844C183.287 103.141 182.701 102.473 182.701 101.84C182.701 101.207 183.228 100.762 184.283 100.504C185.361 100.27 186.462 99.7773 187.587 99.0273C188.736 98.3008 189.837 97.4453 190.892 96.4609C193.986 93.5078 196.388 90.2969 198.099 86.8281C199.552 83.7812 200.724 80.8984 201.615 78.1797L204.357 69.8125C203.677 70.6328 202.927 71.5938 202.107 72.6953L199.576 76.0703C197.372 78.8594 195.544 80.8398 194.091 82.0117C191.326 84.2383 188.853 85.3516 186.673 85.3516C183.767 85.3516 181.833 84.0977 180.872 81.5898Z"/>
</mask>
<path d="M40.668 38.1367C40.668 36.168 39.4961 35.1836 37.1523 35.1836C32.6758 35.1836 28.6094 37.2578 24.9531 41.4062C22.7969 43.8438 21.2852 46.4805 20.418 49.3164C19.9961 50.6992 19.7852 51.918 19.7852 52.9727C19.7852 54.0273 19.9023 54.8711 20.1367 55.5039C20.3945 56.1133 20.7109 56.6172 21.0859 57.0156C21.8828 57.8594 22.8086 58.1875 23.8633 58C25.0117 57.5312 26.0195 57.2969 26.8867 57.2969C27.7773 57.2969 28.4805 57.4141 28.9961 57.6484C29.5352 57.8594 29.9688 58.1289 30.2969 58.457C30.9766 59.1133 31.3164 59.7461 31.3164 60.3555C31.3164 61.5508 30.918 62.1719 30.1211 62.2188C28.9023 62.3359 27.625 62.6758 26.2891 63.2383C24.9531 63.8008 23.6055 64.5391 22.2461 65.4531C20.8867 66.3438 19.6797 67.3516 18.625 68.4766C16.2109 71.0547 15.0039 73.6445 15.0039 76.2461C15.0039 77.4883 15.2969 78.4258 15.8828 79.0586C16.8672 80.1602 18.0391 80.7109 19.3984 80.7109C20.7578 80.7109 22.082 80.4531 23.3711 79.9375C24.6836 79.3984 25.8672 78.7539 26.9219 78.0039C28.5156 76.8555 30.0625 75.3906 31.5625 73.6094C32.3125 72.7188 32.9688 72.2734 33.5312 72.2734C34.0938 72.2734 34.5156 72.6133 34.7969 73.293C35.1016 73.9492 35.2539 74.6523 35.2539 75.4023C35.2539 76.9492 34.9609 78.0977 34.375 78.8477C33.7891 79.5742 33.0508 80.3125 32.1602 81.0625C31.293 81.7891 30.25 82.4688 29.0312 83.1016C26.1016 84.6016 22.9609 85.3516 19.6094 85.3516C13.9609 85.3516 10.0938 83.5 8.00781 79.7969C7.25781 78.4141 6.88281 76.9961 6.88281 75.543C6.88281 74.0898 7.09375 72.7422 7.51562 71.5C7.96094 70.2578 8.52344 69.1094 9.20312 68.0547C9.88281 66.9766 10.6445 66.0156 11.4883 65.1719C12.332 64.3047 13.1641 63.5547 13.9844 62.9219C15.6016 61.6562 16.9375 60.9414 17.9922 60.7773C15.3438 59.7227 13.5625 57.6719 12.6484 54.625C12.3672 53.6406 12.2266 52.4453 12.2266 51.0391C12.2266 49.6328 12.4961 48.0859 13.0352 46.3984C13.5742 44.6875 14.3359 43.0586 15.3203 41.5117C16.3047 39.9414 17.4766 38.4766 18.8359 37.1172C20.1953 35.7578 21.6953 34.5742 23.3359 33.5664C26.875 31.4102 30.6016 30.332 34.5156 30.332C38.6172 30.332 41.6758 31.3516 43.6914 33.3906C45.3086 35.0312 46.1172 37.1289 46.1172 39.6836C46.1172 42.5898 44.8984 45.5312 42.4609 48.5078C40.9844 50.2891 39.6484 51.4961 38.4531 52.1289C37.2812 52.7617 36.3555 53.1133 35.6758 53.1836C35.0195 53.2305 34.3984 53.1484 33.8125 52.9375C33.25 52.7031 32.7578 52.3984 32.3359 52.0234C31.375 51.1562 30.8945 50.3711 30.8945 49.668C30.8945 48.8008 31.1992 48.1328 31.8086 47.6641L34.9727 45.4141C38.7695 42.625 40.668 40.1992 40.668 38.1367Z" fill="url(#paint1_linear)"/>
<path d="M40.135 81.5898C39.7834 80.8164 39.6077 79.9023 39.6077 78.8477C39.6077 77.793 39.7717 76.6328 40.0998 75.3672C40.428 74.0781 40.8498 72.7656 41.3655 71.4297C41.8811 70.0938 42.4553 68.7344 43.0881 67.3516L44.8811 63.2734C47.2014 57.9062 48.0569 54.7422 47.4475 53.7812C47.1662 53.3359 46.6272 52.8906 45.8303 52.4453C45.5725 52.2812 45.4436 52 45.4436 51.6016C45.4436 51.1797 45.6077 50.7812 45.9358 50.4062C46.2873 50.0312 46.7444 49.7031 47.3069 49.4219C48.4319 48.8828 49.5686 48.6133 50.717 48.6133C51.8655 48.6133 52.7327 48.7422 53.3186 49C53.928 49.2344 54.4319 49.5391 54.8303 49.9141C55.5803 50.6875 55.9553 51.625 55.9553 52.7266C55.9553 53.8281 55.7444 55.0703 55.3225 56.4531C54.9006 57.8359 54.3733 59.2891 53.7405 60.8125C53.1077 62.3359 52.4162 63.8945 51.6662 65.4883L49.592 70.0938C48.1155 73.4922 47.3772 75.7422 47.3772 76.8438C47.3772 79 48.1389 80.0781 49.6623 80.0781C53.5764 80.0781 57.2444 77.7578 60.6662 73.1172C62.6584 70.4219 64.0881 67.4922 64.9553 64.3281C65.3537 62.8281 65.553 61.4688 65.553 60.25C65.553 59.0078 65.5061 57.9766 65.4123 57.1562C65.342 56.3359 65.2131 55.6094 65.0256 54.9766C64.7209 53.8516 64.2053 52.8789 63.4787 52.0586C62.9866 51.4492 63.2092 50.7344 64.1467 49.9141C65.178 49.0469 66.6428 48.6133 68.5412 48.6133C69.7131 48.6133 70.7444 49.1641 71.635 50.2656C72.76 51.5781 73.3225 53.4648 73.3225 55.9258C73.3225 58.3633 72.9592 60.7656 72.2327 63.1328C71.5061 65.4766 70.51 67.7383 69.2444 69.918C67.9787 72.0742 66.4787 74.0898 64.7444 75.9648C63.0334 77.8398 61.1819 79.4688 59.1897 80.8516C54.9241 83.8516 50.6584 85.3516 46.3928 85.3516C43.3225 85.3516 41.2366 84.0977 40.135 81.5898Z" fill="url(#paint2_linear)"/>
<path d="M73.8794 72.6953C73.9731 70.6562 74.313 68.7109 74.8989 66.8594C75.4848 64.9844 76.27 63.1797 77.2544 61.4453C78.2387 59.6875 79.3872 58.0352 80.6997 56.4883C82.0356 54.918 83.477 53.5469 85.0239 52.375C88.3755 49.8672 91.7622 48.6133 95.1841 48.6133C99.1919 48.6133 101.864 50.2656 103.2 53.5703C103.668 54.6953 103.891 56.0312 103.868 57.5781C103.844 59.1016 103.551 60.5195 102.989 61.832C102.426 63.1211 101.641 64.3047 100.633 65.3828C99.6489 66.4375 98.4653 67.3867 97.0825 68.2305C95.7231 69.0742 94.2348 69.7891 92.6177 70.375C89.2895 71.5469 85.727 72.1562 81.9302 72.2031C81.8364 72.5312 81.7778 73.0234 81.7544 73.6797C81.7309 74.3359 81.8012 75.0742 81.9653 75.8945C82.1294 76.6914 82.4106 77.4062 82.8091 78.0391C83.6528 79.4453 84.8716 80.1484 86.4653 80.1484C89.1841 80.1484 91.8325 79.3516 94.4106 77.7578C95.3247 77.2188 96.063 76.668 96.6255 76.1055C97.2114 75.5195 97.7153 75.2266 98.1372 75.2266C98.5591 75.2266 98.9223 75.4844 99.227 76C99.5552 76.4922 99.7192 77.0547 99.7192 77.6875C99.7192 78.9297 99.3677 80.0078 98.6645 80.9219C95.7114 83.875 91.3169 85.3516 85.4809 85.3516C82.0356 85.3516 79.27 84.3203 77.1841 82.2578C74.8403 79.9141 73.7387 76.7266 73.8794 72.6953ZM94.4106 53.2891C91.9497 53.2891 89.5825 54.9766 87.3091 58.3516C85.3872 61.2578 83.8403 64.7031 82.6684 68.6875C86.5825 68.2891 89.9809 66.7422 92.8637 64.0469C95.5122 61.5156 96.8364 59.0898 96.8364 56.7695C96.8364 54.4492 96.0278 53.2891 94.4106 53.2891Z" fill="url(#paint3_linear)"/>
<path d="M129.596 55.2578C128.87 55.2578 127.839 55.9609 126.503 57.3672C125.167 58.75 124.007 60.0156 123.022 61.1641L120.034 64.75L114.268 72.0977C112.909 74.6758 111.842 76.8203 111.069 78.5312L109.171 82.6094C108.678 83.6172 108.245 84.332 107.87 84.7539C107.518 85.1523 107.026 85.3516 106.393 85.3516C105.784 85.3516 105.186 85.2344 104.6 85C104.038 84.7891 103.546 84.5078 103.124 84.1562C102.233 83.4062 101.788 82.5859 101.788 81.6953C101.788 81.3438 102.046 80.6523 102.561 79.6211L103.897 76.7734C104.319 75.9297 104.811 74.8516 105.374 73.5391L107.342 68.7227C110.108 61.8086 111.491 57.3438 111.491 55.3281C111.491 54.25 111.139 53.4531 110.436 52.9375L109.733 52.4453C109.499 52.2812 109.382 52 109.382 51.6016C109.382 51.1797 109.534 50.7812 109.839 50.4062C110.167 50.0312 110.589 49.7031 111.104 49.4219C112.159 48.8828 113.214 48.6133 114.268 48.6133C115.346 48.6133 116.178 48.7305 116.764 48.9648C117.35 49.1992 117.842 49.5156 118.241 49.9141C119.108 50.7344 119.542 51.5898 119.542 52.4805C119.542 53.3711 119.425 54.2734 119.19 55.1875C118.979 56.0781 118.698 56.9922 118.346 57.9297C118.018 58.8438 117.667 59.7461 117.292 60.6367C116.917 61.5273 116.577 62.3008 116.272 62.957L115.569 64.4688C115.382 64.8438 115.335 64.9609 115.428 64.8203C118.03 61.2109 119.741 58.8906 120.561 57.8594L123.022 54.9062C124.827 52.7969 126.245 51.4023 127.276 50.7227C129.362 49.3164 131.003 48.6133 132.198 48.6133C133.393 48.6133 134.401 48.7656 135.221 49.0703C136.042 49.375 136.757 49.8086 137.366 50.3711C138.655 51.5664 139.3 53.0898 139.3 54.9414C139.3 56.793 138.878 58.7266 138.034 60.7422C137.19 62.7578 136.452 64.3984 135.819 65.6641C135.21 66.9062 134.624 68.1719 134.061 69.4609C132.303 73.375 131.425 76.2227 131.425 78.0039C131.425 78.8008 132.057 79.1992 133.323 79.1992C134.307 79.1992 135.198 78.9883 135.995 78.5664C136.815 78.1445 137.342 77.9336 137.577 77.9336C138.069 77.9336 138.315 78.1797 138.315 78.6719C138.315 80.7578 137.249 82.5039 135.116 83.9102C133.686 84.8711 132.374 85.3516 131.178 85.3516C129.983 85.3516 128.987 85.2227 128.19 84.9648C127.417 84.707 126.725 84.2969 126.116 83.7344C124.733 82.4922 124.042 80.7578 124.042 78.5312C124.042 75.8125 124.897 72.4141 126.608 68.3359C127.85 65.5469 128.729 63.6367 129.245 62.6055L130.44 60.1094C131.167 58.6094 131.53 57.4258 131.53 56.5586C131.53 55.6914 130.885 55.2578 129.596 55.2578Z" fill="url(#paint4_linear)"/>
<path d="M161.899 75.7891C162.579 75.7891 162.919 76.2461 162.919 77.1602C162.919 77.9336 162.685 78.6836 162.216 79.4102C161.583 80.7695 160.317 82.0586 158.419 83.2773C156.263 84.6602 154.095 85.3516 151.915 85.3516C148.142 85.3516 145.751 83.6641 144.743 80.2891C143.548 76.2812 145.341 67.7852 150.122 54.8008C147.427 54.5664 145.962 54.0977 145.727 53.3945C145.657 53.1836 145.622 52.9609 145.622 52.7266C145.622 52.4688 145.727 52.1758 145.938 51.8477C146.173 51.5195 146.466 51.2031 146.817 50.8984C147.638 50.2188 148.47 49.8789 149.313 49.8789H152.091C154.622 43.9492 156.427 40.5742 157.505 39.7539C158.02 39.3789 158.595 39.1914 159.227 39.1914C159.86 39.1914 160.388 39.2734 160.81 39.4375C161.231 39.6016 161.606 39.8359 161.935 40.1406C162.685 40.8438 163.06 41.6289 163.06 42.4961C163.06 42.9648 162.919 43.5039 162.638 44.1133L160.036 49.7734H160.88C162.333 49.7734 163.505 49.7617 164.395 49.7383C164.395 49.7383 165.063 49.7266 166.399 49.7031C166.845 49.6797 167.395 49.668 168.052 49.668C168.731 49.668 169.071 49.9141 169.071 50.4062C169.071 53.5 165.415 55.0469 158.102 55.0469H157.821L155.431 61.2344C152.735 68.5469 151.388 73.668 151.388 76.5977C151.388 77.418 151.575 78.0625 151.95 78.5312C152.325 78.9766 153.028 79.1992 154.06 79.1992C155.091 79.1992 156.028 79.0234 156.872 78.6719C157.716 78.3203 158.454 77.9336 159.087 77.5117C159.72 77.0664 160.259 76.668 160.704 76.3164C161.173 75.9648 161.571 75.7891 161.899 75.7891Z" fill="url(#paint5_linear)"/>
<path d="M165.796 83.5938C165.21 82.9844 164.73 82.2109 164.355 81.2734C164.003 80.3125 163.827 79.2109 163.827 77.9688C163.827 76.7031 164.109 75.0156 164.671 72.9062C165.257 70.7969 165.995 68.3945 166.886 65.6992L169.839 56.9453C174.034 44.7578 176.46 35.3359 177.116 28.6797C177.327 26.7109 178.288 25.7266 179.999 25.7266C181.077 25.7266 181.968 25.9844 182.671 26.5C184.03 27.5312 184.687 28.6797 184.64 29.9453C184.593 31.2109 184.37 32.7578 183.972 34.5859C183.573 36.3906 183.058 38.3711 182.425 40.5273C181.792 42.6602 181.066 44.9219 180.245 47.3125L175.394 61.5859C172.605 69.6953 171.21 74.9336 171.21 77.3008C171.21 78.5664 171.726 79.1992 172.757 79.1992C173.741 79.1992 174.632 78.9883 175.429 78.5664C176.249 78.1445 176.777 77.9336 177.011 77.9336C177.503 77.9336 177.749 78.1797 177.749 78.6719C177.749 80.7578 176.683 82.5039 174.55 83.9102C173.12 84.8711 171.808 85.3516 170.613 85.3516C169.441 85.3516 168.491 85.2109 167.765 84.9297C167.038 84.6484 166.382 84.2031 165.796 83.5938Z" fill="url(#paint6_linear)"/>
<path d="M180.872 81.5898C180.591 80.8164 180.451 79.9375 180.451 78.9531C180.451 77.9453 180.615 76.832 180.943 75.6133C181.294 74.3711 181.74 73.082 182.279 71.7461C182.818 70.4102 183.404 69.0391 184.037 67.6328L185.935 63.4141C188.372 58 189.275 54.7891 188.642 53.7812C188.361 53.3359 187.833 52.8906 187.06 52.4453C186.779 52.2812 186.638 52 186.638 51.6016C186.638 51.1797 186.802 50.7812 187.13 50.4062C187.482 50.0312 187.927 49.7031 188.466 49.4219C189.615 48.8828 190.763 48.6133 191.912 48.6133C193.06 48.6133 193.927 48.7422 194.513 49C195.122 49.2344 195.615 49.5391 195.99 49.9141C196.763 50.6875 197.15 51.543 197.15 52.4805C197.15 53.418 196.997 54.4727 196.693 55.6445C196.388 56.793 195.99 58.0469 195.497 59.4062C195.005 60.7656 194.466 62.1719 193.88 63.625C192.263 67.4219 191.173 69.9297 190.611 71.1484L189.31 73.8555C188.583 75.4727 188.22 76.6094 188.22 77.2656C188.22 77.9219 188.326 78.3906 188.537 78.6719C188.747 78.9297 189.122 79.0586 189.662 79.0586C190.224 79.0586 190.833 78.8477 191.49 78.4258C192.169 78.0039 192.896 77.4414 193.669 76.7383C194.443 76.0352 195.24 75.2266 196.06 74.3125C196.904 73.375 197.724 72.4023 198.521 71.3945C200.607 68.8164 202.154 66.6016 203.162 64.75C208.224 55.4219 210.908 50.5469 211.212 50.125C211.986 49.1172 212.759 48.6133 213.533 48.6133C214.33 48.6133 215.021 48.707 215.607 48.8945C216.193 49.0586 216.697 49.3047 217.119 49.6328C218.056 50.3125 218.337 51.0742 217.962 51.918C217.611 52.7617 217.177 53.9219 216.662 55.3984C212.208 68.3125 209.314 76.3633 207.978 79.5508C206.665 82.7383 205.517 85.293 204.533 87.2148C203.548 89.1602 202.388 91.1172 201.052 93.0859C199.74 95.0547 198.333 96.8477 196.833 98.4648C193.412 102.121 190.201 104.078 187.201 104.336C186.052 104.43 185.138 104.266 184.458 103.844C183.287 103.141 182.701 102.473 182.701 101.84C182.701 101.207 183.228 100.762 184.283 100.504C185.361 100.27 186.462 99.7773 187.587 99.0273C188.736 98.3008 189.837 97.4453 190.892 96.4609C193.986 93.5078 196.388 90.2969 198.099 86.8281C199.552 83.7812 200.724 80.8984 201.615 78.1797L204.357 69.8125C203.677 70.6328 202.927 71.5938 202.107 72.6953L199.576 76.0703C197.372 78.8594 195.544 80.8398 194.091 82.0117C191.326 84.2383 188.853 85.3516 186.673 85.3516C183.767 85.3516 181.833 84.0977 180.872 81.5898Z" fill="url(#paint7_linear)"/>
<path d="M40.668 38.1367C40.668 36.168 39.4961 35.1836 37.1523 35.1836C32.6758 35.1836 28.6094 37.2578 24.9531 41.4062C22.7969 43.8438 21.2852 46.4805 20.418 49.3164C19.9961 50.6992 19.7852 51.918 19.7852 52.9727C19.7852 54.0273 19.9023 54.8711 20.1367 55.5039C20.3945 56.1133 20.7109 56.6172 21.0859 57.0156C21.8828 57.8594 22.8086 58.1875 23.8633 58C25.0117 57.5312 26.0195 57.2969 26.8867 57.2969C27.7773 57.2969 28.4805 57.4141 28.9961 57.6484C29.5352 57.8594 29.9688 58.1289 30.2969 58.457C30.9766 59.1133 31.3164 59.7461 31.3164 60.3555C31.3164 61.5508 30.918 62.1719 30.1211 62.2188C28.9023 62.3359 27.625 62.6758 26.2891 63.2383C24.9531 63.8008 23.6055 64.5391 22.2461 65.4531C20.8867 66.3438 19.6797 67.3516 18.625 68.4766C16.2109 71.0547 15.0039 73.6445 15.0039 76.2461C15.0039 77.4883 15.2969 78.4258 15.8828 79.0586C16.8672 80.1602 18.0391 80.7109 19.3984 80.7109C20.7578 80.7109 22.082 80.4531 23.3711 79.9375C24.6836 79.3984 25.8672 78.7539 26.9219 78.0039C28.5156 76.8555 30.0625 75.3906 31.5625 73.6094C32.3125 72.7188 32.9688 72.2734 33.5312 72.2734C34.0938 72.2734 34.5156 72.6133 34.7969 73.293C35.1016 73.9492 35.2539 74.6523 35.2539 75.4023C35.2539 76.9492 34.9609 78.0977 34.375 78.8477C33.7891 79.5742 33.0508 80.3125 32.1602 81.0625C31.293 81.7891 30.25 82.4688 29.0312 83.1016C26.1016 84.6016 22.9609 85.3516 19.6094 85.3516C13.9609 85.3516 10.0938 83.5 8.00781 79.7969C7.25781 78.4141 6.88281 76.9961 6.88281 75.543C6.88281 74.0898 7.09375 72.7422 7.51562 71.5C7.96094 70.2578 8.52344 69.1094 9.20312 68.0547C9.88281 66.9766 10.6445 66.0156 11.4883 65.1719C12.332 64.3047 13.1641 63.5547 13.9844 62.9219C15.6016 61.6562 16.9375 60.9414 17.9922 60.7773C15.3438 59.7227 13.5625 57.6719 12.6484 54.625C12.3672 53.6406 12.2266 52.4453 12.2266 51.0391C12.2266 49.6328 12.4961 48.0859 13.0352 46.3984C13.5742 44.6875 14.3359 43.0586 15.3203 41.5117C16.3047 39.9414 17.4766 38.4766 18.8359 37.1172C20.1953 35.7578 21.6953 34.5742 23.3359 33.5664C26.875 31.4102 30.6016 30.332 34.5156 30.332C38.6172 30.332 41.6758 31.3516 43.6914 33.3906C45.3086 35.0312 46.1172 37.1289 46.1172 39.6836C46.1172 42.5898 44.8984 45.5312 42.4609 48.5078C40.9844 50.2891 39.6484 51.4961 38.4531 52.1289C37.2812 52.7617 36.3555 53.1133 35.6758 53.1836C35.0195 53.2305 34.3984 53.1484 33.8125 52.9375C33.25 52.7031 32.7578 52.3984 32.3359 52.0234C31.375 51.1562 30.8945 50.3711 30.8945 49.668C30.8945 48.8008 31.1992 48.1328 31.8086 47.6641L34.9727 45.4141C38.7695 42.625 40.668 40.1992 40.668 38.1367Z" stroke="white" stroke-width="12" mask="url(#path-2-outside-1)"/>
<path d="M40.135 81.5898C39.7834 80.8164 39.6077 79.9023 39.6077 78.8477C39.6077 77.793 39.7717 76.6328 40.0998 75.3672C40.428 74.0781 40.8498 72.7656 41.3655 71.4297C41.8811 70.0938 42.4553 68.7344 43.0881 67.3516L44.8811 63.2734C47.2014 57.9062 48.0569 54.7422 47.4475 53.7812C47.1662 53.3359 46.6272 52.8906 45.8303 52.4453C45.5725 52.2812 45.4436 52 45.4436 51.6016C45.4436 51.1797 45.6077 50.7812 45.9358 50.4062C46.2873 50.0312 46.7444 49.7031 47.3069 49.4219C48.4319 48.8828 49.5686 48.6133 50.717 48.6133C51.8655 48.6133 52.7327 48.7422 53.3186 49C53.928 49.2344 54.4319 49.5391 54.8303 49.9141C55.5803 50.6875 55.9553 51.625 55.9553 52.7266C55.9553 53.8281 55.7444 55.0703 55.3225 56.4531C54.9006 57.8359 54.3733 59.2891 53.7405 60.8125C53.1077 62.3359 52.4162 63.8945 51.6662 65.4883L49.592 70.0938C48.1155 73.4922 47.3772 75.7422 47.3772 76.8438C47.3772 79 48.1389 80.0781 49.6623 80.0781C53.5764 80.0781 57.2444 77.7578 60.6662 73.1172C62.6584 70.4219 64.0881 67.4922 64.9553 64.3281C65.3537 62.8281 65.553 61.4688 65.553 60.25C65.553 59.0078 65.5061 57.9766 65.4123 57.1562C65.342 56.3359 65.2131 55.6094 65.0256 54.9766C64.7209 53.8516 64.2053 52.8789 63.4787 52.0586C62.9866 51.4492 63.2092 50.7344 64.1467 49.9141C65.178 49.0469 66.6428 48.6133 68.5412 48.6133C69.7131 48.6133 70.7444 49.1641 71.635 50.2656C72.76 51.5781 73.3225 53.4648 73.3225 55.9258C73.3225 58.3633 72.9592 60.7656 72.2327 63.1328C71.5061 65.4766 70.51 67.7383 69.2444 69.918C67.9787 72.0742 66.4787 74.0898 64.7444 75.9648C63.0334 77.8398 61.1819 79.4688 59.1897 80.8516C54.9241 83.8516 50.6584 85.3516 46.3928 85.3516C43.3225 85.3516 41.2366 84.0977 40.135 81.5898Z" stroke="white" stroke-width="12" mask="url(#path-2-outside-1)"/>
<path d="M73.8794 72.6953C73.9731 70.6562 74.313 68.7109 74.8989 66.8594C75.4848 64.9844 76.27 63.1797 77.2544 61.4453C78.2387 59.6875 79.3872 58.0352 80.6997 56.4883C82.0356 54.918 83.477 53.5469 85.0239 52.375C88.3755 49.8672 91.7622 48.6133 95.1841 48.6133C99.1919 48.6133 101.864 50.2656 103.2 53.5703C103.668 54.6953 103.891 56.0312 103.868 57.5781C103.844 59.1016 103.551 60.5195 102.989 61.832C102.426 63.1211 101.641 64.3047 100.633 65.3828C99.6489 66.4375 98.4653 67.3867 97.0825 68.2305C95.7231 69.0742 94.2348 69.7891 92.6177 70.375C89.2895 71.5469 85.727 72.1562 81.9302 72.2031C81.8364 72.5312 81.7778 73.0234 81.7544 73.6797C81.7309 74.3359 81.8012 75.0742 81.9653 75.8945C82.1294 76.6914 82.4106 77.4062 82.8091 78.0391C83.6528 79.4453 84.8716 80.1484 86.4653 80.1484C89.1841 80.1484 91.8325 79.3516 94.4106 77.7578C95.3247 77.2188 96.063 76.668 96.6255 76.1055C97.2114 75.5195 97.7153 75.2266 98.1372 75.2266C98.5591 75.2266 98.9223 75.4844 99.227 76C99.5552 76.4922 99.7192 77.0547 99.7192 77.6875C99.7192 78.9297 99.3677 80.0078 98.6645 80.9219C95.7114 83.875 91.3169 85.3516 85.4809 85.3516C82.0356 85.3516 79.27 84.3203 77.1841 82.2578C74.8403 79.9141 73.7387 76.7266 73.8794 72.6953ZM94.4106 53.2891C91.9497 53.2891 89.5825 54.9766 87.3091 58.3516C85.3872 61.2578 83.8403 64.7031 82.6684 68.6875C86.5825 68.2891 89.9809 66.7422 92.8637 64.0469C95.5122 61.5156 96.8364 59.0898 96.8364 56.7695C96.8364 54.4492 96.0278 53.2891 94.4106 53.2891Z" stroke="white" stroke-width="12" mask="url(#path-2-outside-1)"/>
<path d="M129.596 55.2578C128.87 55.2578 127.839 55.9609 126.503 57.3672C125.167 58.75 124.007 60.0156 123.022 61.1641L120.034 64.75L114.268 72.0977C112.909 74.6758 111.842 76.8203 111.069 78.5312L109.171 82.6094C108.678 83.6172 108.245 84.332 107.87 84.7539C107.518 85.1523 107.026 85.3516 106.393 85.3516C105.784 85.3516 105.186 85.2344 104.6 85C104.038 84.7891 103.546 84.5078 103.124 84.1562C102.233 83.4062 101.788 82.5859 101.788 81.6953C101.788 81.3438 102.046 80.6523 102.561 79.6211L103.897 76.7734C104.319 75.9297 104.811 74.8516 105.374 73.5391L107.342 68.7227C110.108 61.8086 111.491 57.3438 111.491 55.3281C111.491 54.25 111.139 53.4531 110.436 52.9375L109.733 52.4453C109.499 52.2812 109.382 52 109.382 51.6016C109.382 51.1797 109.534 50.7812 109.839 50.4062C110.167 50.0312 110.589 49.7031 111.104 49.4219C112.159 48.8828 113.214 48.6133 114.268 48.6133C115.346 48.6133 116.178 48.7305 116.764 48.9648C117.35 49.1992 117.842 49.5156 118.241 49.9141C119.108 50.7344 119.542 51.5898 119.542 52.4805C119.542 53.3711 119.425 54.2734 119.19 55.1875C118.979 56.0781 118.698 56.9922 118.346 57.9297C118.018 58.8438 117.667 59.7461 117.292 60.6367C116.917 61.5273 116.577 62.3008 116.272 62.957L115.569 64.4688C115.382 64.8438 115.335 64.9609 115.428 64.8203C118.03 61.2109 119.741 58.8906 120.561 57.8594L123.022 54.9062C124.827 52.7969 126.245 51.4023 127.276 50.7227C129.362 49.3164 131.003 48.6133 132.198 48.6133C133.393 48.6133 134.401 48.7656 135.221 49.0703C136.042 49.375 136.757 49.8086 137.366 50.3711C138.655 51.5664 139.3 53.0898 139.3 54.9414C139.3 56.793 138.878 58.7266 138.034 60.7422C137.19 62.7578 136.452 64.3984 135.819 65.6641C135.21 66.9062 134.624 68.1719 134.061 69.4609C132.303 73.375 131.425 76.2227 131.425 78.0039C131.425 78.8008 132.057 79.1992 133.323 79.1992C134.307 79.1992 135.198 78.9883 135.995 78.5664C136.815 78.1445 137.342 77.9336 137.577 77.9336C138.069 77.9336 138.315 78.1797 138.315 78.6719C138.315 80.7578 137.249 82.5039 135.116 83.9102C133.686 84.8711 132.374 85.3516 131.178 85.3516C129.983 85.3516 128.987 85.2227 128.19 84.9648C127.417 84.707 126.725 84.2969 126.116 83.7344C124.733 82.4922 124.042 80.7578 124.042 78.5312C124.042 75.8125 124.897 72.4141 126.608 68.3359C127.85 65.5469 128.729 63.6367 129.245 62.6055L130.44 60.1094C131.167 58.6094 131.53 57.4258 131.53 56.5586C131.53 55.6914 130.885 55.2578 129.596 55.2578Z" stroke="white" stroke-width="12" mask="url(#path-2-outside-1)"/>
<path d="M161.899 75.7891C162.579 75.7891 162.919 76.2461 162.919 77.1602C162.919 77.9336 162.685 78.6836 162.216 79.4102C161.583 80.7695 160.317 82.0586 158.419 83.2773C156.263 84.6602 154.095 85.3516 151.915 85.3516C148.142 85.3516 145.751 83.6641 144.743 80.2891C143.548 76.2812 145.341 67.7852 150.122 54.8008C147.427 54.5664 145.962 54.0977 145.727 53.3945C145.657 53.1836 145.622 52.9609 145.622 52.7266C145.622 52.4688 145.727 52.1758 145.938 51.8477C146.173 51.5195 146.466 51.2031 146.817 50.8984C147.638 50.2188 148.47 49.8789 149.313 49.8789H152.091C154.622 43.9492 156.427 40.5742 157.505 39.7539C158.02 39.3789 158.595 39.1914 159.227 39.1914C159.86 39.1914 160.388 39.2734 160.81 39.4375C161.231 39.6016 161.606 39.8359 161.935 40.1406C162.685 40.8438 163.06 41.6289 163.06 42.4961C163.06 42.9648 162.919 43.5039 162.638 44.1133L160.036 49.7734H160.88C162.333 49.7734 163.505 49.7617 164.395 49.7383C164.395 49.7383 165.063 49.7266 166.399 49.7031C166.845 49.6797 167.395 49.668 168.052 49.668C168.731 49.668 169.071 49.9141 169.071 50.4062C169.071 53.5 165.415 55.0469 158.102 55.0469H157.821L155.431 61.2344C152.735 68.5469 151.388 73.668 151.388 76.5977C151.388 77.418 151.575 78.0625 151.95 78.5312C152.325 78.9766 153.028 79.1992 154.06 79.1992C155.091 79.1992 156.028 79.0234 156.872 78.6719C157.716 78.3203 158.454 77.9336 159.087 77.5117C159.72 77.0664 160.259 76.668 160.704 76.3164C161.173 75.9648 161.571 75.7891 161.899 75.7891Z" stroke="white" stroke-width="12" mask="url(#path-2-outside-1)"/>
<path d="M165.796 83.5938C165.21 82.9844 164.73 82.2109 164.355 81.2734C164.003 80.3125 163.827 79.2109 163.827 77.9688C163.827 76.7031 164.109 75.0156 164.671 72.9062C165.257 70.7969 165.995 68.3945 166.886 65.6992L169.839 56.9453C174.034 44.7578 176.46 35.3359 177.116 28.6797C177.327 26.7109 178.288 25.7266 179.999 25.7266C181.077 25.7266 181.968 25.9844 182.671 26.5C184.03 27.5312 184.687 28.6797 184.64 29.9453C184.593 31.2109 184.37 32.7578 183.972 34.5859C183.573 36.3906 183.058 38.3711 182.425 40.5273C181.792 42.6602 181.066 44.9219 180.245 47.3125L175.394 61.5859C172.605 69.6953 171.21 74.9336 171.21 77.3008C171.21 78.5664 171.726 79.1992 172.757 79.1992C173.741 79.1992 174.632 78.9883 175.429 78.5664C176.249 78.1445 176.777 77.9336 177.011 77.9336C177.503 77.9336 177.749 78.1797 177.749 78.6719C177.749 80.7578 176.683 82.5039 174.55 83.9102C173.12 84.8711 171.808 85.3516 170.613 85.3516C169.441 85.3516 168.491 85.2109 167.765 84.9297C167.038 84.6484 166.382 84.2031 165.796 83.5938Z" stroke="white" stroke-width="12" mask="url(#path-2-outside-1)"/>
<path d="M180.872 81.5898C180.591 80.8164 180.451 79.9375 180.451 78.9531C180.451 77.9453 180.615 76.832 180.943 75.6133C181.294 74.3711 181.74 73.082 182.279 71.7461C182.818 70.4102 183.404 69.0391 184.037 67.6328L185.935 63.4141C188.372 58 189.275 54.7891 188.642 53.7812C188.361 53.3359 187.833 52.8906 187.06 52.4453C186.779 52.2812 186.638 52 186.638 51.6016C186.638 51.1797 186.802 50.7812 187.13 50.4062C187.482 50.0312 187.927 49.7031 188.466 49.4219C189.615 48.8828 190.763 48.6133 191.912 48.6133C193.06 48.6133 193.927 48.7422 194.513 49C195.122 49.2344 195.615 49.5391 195.99 49.9141C196.763 50.6875 197.15 51.543 197.15 52.4805C197.15 53.418 196.997 54.4727 196.693 55.6445C196.388 56.793 195.99 58.0469 195.497 59.4062C195.005 60.7656 194.466 62.1719 193.88 63.625C192.263 67.4219 191.173 69.9297 190.611 71.1484L189.31 73.8555C188.583 75.4727 188.22 76.6094 188.22 77.2656C188.22 77.9219 188.326 78.3906 188.537 78.6719C188.747 78.9297 189.122 79.0586 189.662 79.0586C190.224 79.0586 190.833 78.8477 191.49 78.4258C192.169 78.0039 192.896 77.4414 193.669 76.7383C194.443 76.0352 195.24 75.2266 196.06 74.3125C196.904 73.375 197.724 72.4023 198.521 71.3945C200.607 68.8164 202.154 66.6016 203.162 64.75C208.224 55.4219 210.908 50.5469 211.212 50.125C211.986 49.1172 212.759 48.6133 213.533 48.6133C214.33 48.6133 215.021 48.707 215.607 48.8945C216.193 49.0586 216.697 49.3047 217.119 49.6328C218.056 50.3125 218.337 51.0742 217.962 51.918C217.611 52.7617 217.177 53.9219 216.662 55.3984C212.208 68.3125 209.314 76.3633 207.978 79.5508C206.665 82.7383 205.517 85.293 204.533 87.2148C203.548 89.1602 202.388 91.1172 201.052 93.0859C199.74 95.0547 198.333 96.8477 196.833 98.4648C193.412 102.121 190.201 104.078 187.201 104.336C186.052 104.43 185.138 104.266 184.458 103.844C183.287 103.141 182.701 102.473 182.701 101.84C182.701 101.207 183.228 100.762 184.283 100.504C185.361 100.27 186.462 99.7773 187.587 99.0273C188.736 98.3008 189.837 97.4453 190.892 96.4609C193.986 93.5078 196.388 90.2969 198.099 86.8281C199.552 83.7812 200.724 80.8984 201.615 78.1797L204.357 69.8125C203.677 70.6328 202.927 71.5938 202.107 72.6953L199.576 76.0703C197.372 78.8594 195.544 80.8398 194.091 82.0117C191.326 84.2383 188.853 85.3516 186.673 85.3516C183.767 85.3516 181.833 84.0977 180.872 81.5898Z" stroke="white" stroke-width="12" mask="url(#path-2-outside-1)"/>
<defs>
<linearGradient id="paint0_linear" x1="181.649" y1="-4.17168" x2="284.871" y2="98.3309" gradientUnits="userSpaceOnUse">
<stop stop-color="#E64500"/>
<stop offset="0.380208" stop-color="#FBCA1D"/>
<stop offset="0.734375" stop-color="#EB6507"/>
<stop offset="0.890625" stop-color="#E7008A"/>
</linearGradient>
<linearGradient id="paint1_linear" x1="-87" y1="-11" x2="238.709" y2="83.1243" gradientUnits="userSpaceOnUse">
<stop offset="0.269456" stop-color="#E7008A"/>
<stop offset="0.54918" stop-color="#E64500"/>
<stop offset="0.970848" stop-color="#FBCA1D"/>
</linearGradient>
<linearGradient id="paint2_linear" x1="-87" y1="-11" x2="238.709" y2="83.1243" gradientUnits="userSpaceOnUse">
<stop offset="0.269456" stop-color="#E7008A"/>
<stop offset="0.54918" stop-color="#E64500"/>
<stop offset="0.970848" stop-color="#FBCA1D"/>
</linearGradient>
<linearGradient id="paint3_linear" x1="-87" y1="-11" x2="238.709" y2="83.1243" gradientUnits="userSpaceOnUse">
<stop offset="0.269456" stop-color="#E7008A"/>
<stop offset="0.54918" stop-color="#E64500"/>
<stop offset="0.970848" stop-color="#FBCA1D"/>
</linearGradient>
<linearGradient id="paint4_linear" x1="-87" y1="-11" x2="238.709" y2="83.1243" gradientUnits="userSpaceOnUse">
<stop offset="0.269456" stop-color="#E7008A"/>
<stop offset="0.54918" stop-color="#E64500"/>
<stop offset="0.970848" stop-color="#FBCA1D"/>
</linearGradient>
<linearGradient id="paint5_linear" x1="-87" y1="-11" x2="238.709" y2="83.1243" gradientUnits="userSpaceOnUse">
<stop offset="0.269456" stop-color="#E7008A"/>
<stop offset="0.54918" stop-color="#E64500"/>
<stop offset="0.970848" stop-color="#FBCA1D"/>
</linearGradient>
<linearGradient id="paint6_linear" x1="-87" y1="-11" x2="238.709" y2="83.1243" gradientUnits="userSpaceOnUse">
<stop offset="0.269456" stop-color="#E7008A"/>
<stop offset="0.54918" stop-color="#E64500"/>
<stop offset="0.970848" stop-color="#FBCA1D"/>
</linearGradient>
<linearGradient id="paint7_linear" x1="-87" y1="-11" x2="238.709" y2="83.1243" gradientUnits="userSpaceOnUse">
<stop offset="0.269456" stop-color="#E7008A"/>
<stop offset="0.54918" stop-color="#E64500"/>
<stop offset="0.970848" stop-color="#FBCA1D"/>
</linearGradient>
</defs>
</svg>
