<svg width="213" height="80" viewBox="0 0 213 80" fill="none" xmlns="http://www.w3.org/2000/svg">
<path d="M34.668 13.1367C34.668 11.168 33.4961 10.1836 31.1523 10.1836C26.6758 10.1836 22.6094 12.2578 18.9531 16.4062C16.7969 18.8438 15.2852 21.4805 14.418 24.3164C13.9961 25.6992 13.7852 26.918 13.7852 27.9727C13.7852 29.0273 13.9023 29.8711 14.1367 30.5039C14.3945 31.1133 14.7109 31.6172 15.0859 32.0156C15.8828 32.8594 16.8086 33.1875 17.8633 33C19.0117 32.5312 20.0195 32.2969 20.8867 32.2969C21.7773 32.2969 22.4805 32.4141 22.9961 32.6484C23.5352 32.8594 23.9688 33.1289 24.2969 33.457C24.9766 34.1133 25.3164 34.7461 25.3164 35.3555C25.3164 36.5508 24.918 37.1719 24.1211 37.2188C22.9023 37.3359 21.625 37.6758 20.2891 38.2383C18.9531 38.8008 17.6055 39.5391 16.2461 40.4531C14.8867 41.3438 13.6797 42.3516 12.625 43.4766C10.2109 46.0547 9.00391 48.6445 9.00391 51.2461C9.00391 52.4883 9.29688 53.4258 9.88281 54.0586C10.8672 55.1602 12.0391 55.7109 13.3984 55.7109C14.7578 55.7109 16.082 55.4531 17.3711 54.9375C18.6836 54.3984 19.8672 53.7539 20.9219 53.0039C22.5156 51.8555 24.0625 50.3906 25.5625 48.6094C26.3125 47.7188 26.9688 47.2734 27.5312 47.2734C28.0938 47.2734 28.5156 47.6133 28.7969 48.293C29.1016 48.9492 29.2539 49.6523 29.2539 50.4023C29.2539 51.9492 28.9609 53.0977 28.375 53.8477C27.7891 54.5742 27.0508 55.3125 26.1602 56.0625C25.293 56.7891 24.25 57.4688 23.0312 58.1016C20.1016 59.6016 16.9609 60.3516 13.6094 60.3516C7.96094 60.3516 4.09375 58.5 2.00781 54.7969C1.25781 53.4141 0.882812 51.9961 0.882812 50.543C0.882812 49.0898 1.09375 47.7422 1.51562 46.5C1.96094 45.2578 2.52344 44.1094 3.20312 43.0547C3.88281 41.9766 4.64453 41.0156 5.48828 40.1719C6.33203 39.3047 7.16406 38.5547 7.98438 37.9219C9.60156 36.6562 10.9375 35.9414 11.9922 35.7773C9.34375 34.7227 7.5625 32.6719 6.64844 29.625C6.36719 28.6406 6.22656 27.4453 6.22656 26.0391C6.22656 24.6328 6.49609 23.0859 7.03516 21.3984C7.57422 19.6875 8.33594 18.0586 9.32031 16.5117C10.3047 14.9414 11.4766 13.4766 12.8359 12.1172C14.1953 10.7578 15.6953 9.57422 17.3359 8.56641C20.875 6.41016 24.6016 5.33203 28.5156 5.33203C32.6172 5.33203 35.6758 6.35156 37.6914 8.39062C39.3086 10.0312 40.1172 12.1289 40.1172 14.6836C40.1172 17.5898 38.8984 20.5312 36.4609 23.5078C34.9844 25.2891 33.6484 26.4961 32.4531 27.1289C31.2812 27.7617 30.3555 28.1133 29.6758 28.1836C29.0195 28.2305 28.3984 28.1484 27.8125 27.9375C27.25 27.7031 26.7578 27.3984 26.3359 27.0234C25.375 26.1562 24.8945 25.3711 24.8945 24.668C24.8945 23.8008 25.1992 23.1328 25.8086 22.6641L28.9727 20.4141C32.7695 17.625 34.668 15.1992 34.668 13.1367Z" fill="white"/>
<path d="M34.135 56.5898C33.7834 55.8164 33.6077 54.9023 33.6077 53.8477C33.6077 52.793 33.7717 51.6328 34.0998 50.3672C34.428 49.0781 34.8498 47.7656 35.3655 46.4297C35.8811 45.0938 36.4553 43.7344 37.0881 42.3516L38.8811 38.2734C41.2014 32.9062 42.0569 29.7422 41.4475 28.7812C41.1662 28.3359 40.6272 27.8906 39.8303 27.4453C39.5725 27.2812 39.4436 27 39.4436 26.6016C39.4436 26.1797 39.6077 25.7812 39.9358 25.4062C40.2873 25.0312 40.7444 24.7031 41.3069 24.4219C42.4319 23.8828 43.5686 23.6133 44.717 23.6133C45.8655 23.6133 46.7327 23.7422 47.3186 24C47.928 24.2344 48.4319 24.5391 48.8303 24.9141C49.5803 25.6875 49.9553 26.625 49.9553 27.7266C49.9553 28.8281 49.7444 30.0703 49.3225 31.4531C48.9006 32.8359 48.3733 34.2891 47.7405 35.8125C47.1077 37.3359 46.4162 38.8945 45.6662 40.4883L43.592 45.0938C42.1155 48.4922 41.3772 50.7422 41.3772 51.8438C41.3772 54 42.1389 55.0781 43.6623 55.0781C47.5764 55.0781 51.2444 52.7578 54.6662 48.1172C56.6584 45.4219 58.0881 42.4922 58.9553 39.3281C59.3537 37.8281 59.553 36.4688 59.553 35.25C59.553 34.0078 59.5061 32.9766 59.4123 32.1562C59.342 31.3359 59.2131 30.6094 59.0256 29.9766C58.7209 28.8516 58.2053 27.8789 57.4787 27.0586C56.9866 26.4492 57.2092 25.7344 58.1467 24.9141C59.178 24.0469 60.6428 23.6133 62.5412 23.6133C63.7131 23.6133 64.7444 24.1641 65.635 25.2656C66.76 26.5781 67.3225 28.4648 67.3225 30.9258C67.3225 33.3633 66.9592 35.7656 66.2327 38.1328C65.5061 40.4766 64.51 42.7383 63.2444 44.918C61.9787 47.0742 60.4787 49.0898 58.7444 50.9648C57.0334 52.8398 55.1819 54.4688 53.1897 55.8516C48.9241 58.8516 44.6584 60.3516 40.3928 60.3516C37.3225 60.3516 35.2366 59.0977 34.135 56.5898Z" fill="white"/>
<path d="M67.8794 47.6953C67.9731 45.6562 68.313 43.7109 68.8989 41.8594C69.4848 39.9844 70.27 38.1797 71.2544 36.4453C72.2387 34.6875 73.3872 33.0352 74.6997 31.4883C76.0356 29.918 77.477 28.5469 79.0239 27.375C82.3755 24.8672 85.7622 23.6133 89.1841 23.6133C93.1919 23.6133 95.8637 25.2656 97.1997 28.5703C97.6684 29.6953 97.8911 31.0312 97.8677 32.5781C97.8442 34.1016 97.5512 35.5195 96.9887 36.832C96.4262 38.1211 95.6411 39.3047 94.6333 40.3828C93.6489 41.4375 92.4653 42.3867 91.0825 43.2305C89.7231 44.0742 88.2348 44.7891 86.6177 45.375C83.2895 46.5469 79.727 47.1562 75.9302 47.2031C75.8364 47.5312 75.7778 48.0234 75.7544 48.6797C75.7309 49.3359 75.8012 50.0742 75.9653 50.8945C76.1294 51.6914 76.4106 52.4062 76.8091 53.0391C77.6528 54.4453 78.8716 55.1484 80.4653 55.1484C83.1841 55.1484 85.8325 54.3516 88.4106 52.7578C89.3247 52.2188 90.063 51.668 90.6255 51.1055C91.2114 50.5195 91.7153 50.2266 92.1372 50.2266C92.5591 50.2266 92.9223 50.4844 93.227 51C93.5552 51.4922 93.7192 52.0547 93.7192 52.6875C93.7192 53.9297 93.3677 55.0078 92.6645 55.9219C89.7114 58.875 85.3169 60.3516 79.4809 60.3516C76.0356 60.3516 73.27 59.3203 71.1841 57.2578C68.8403 54.9141 67.7387 51.7266 67.8794 47.6953ZM88.4106 28.2891C85.9497 28.2891 83.5825 29.9766 81.3091 33.3516C79.3872 36.2578 77.8403 39.7031 76.6684 43.6875C80.5825 43.2891 83.9809 41.7422 86.8637 39.0469C89.5122 36.5156 90.8364 34.0898 90.8364 31.7695C90.8364 29.4492 90.0278 28.2891 88.4106 28.2891Z" fill="white"/>
<path d="M123.596 30.2578C122.87 30.2578 121.839 30.9609 120.503 32.3672C119.167 33.75 118.007 35.0156 117.022 36.1641L114.034 39.75L108.268 47.0977C106.909 49.6758 105.842 51.8203 105.069 53.5312L103.171 57.6094C102.678 58.6172 102.245 59.332 101.87 59.7539C101.518 60.1523 101.026 60.3516 100.393 60.3516C99.7839 60.3516 99.1862 60.2344 98.6003 60C98.0378 59.7891 97.5456 59.5078 97.1237 59.1562C96.2331 58.4062 95.7878 57.5859 95.7878 56.6953C95.7878 56.3438 96.0456 55.6523 96.5612 54.6211L97.8972 51.7734C98.3191 50.9297 98.8112 49.8516 99.3737 48.5391L101.342 43.7227C104.108 36.8086 105.491 32.3438 105.491 30.3281C105.491 29.25 105.139 28.4531 104.436 27.9375L103.733 27.4453C103.499 27.2812 103.382 27 103.382 26.6016C103.382 26.1797 103.534 25.7812 103.839 25.4062C104.167 25.0312 104.589 24.7031 105.104 24.4219C106.159 23.8828 107.214 23.6133 108.268 23.6133C109.346 23.6133 110.178 23.7305 110.764 23.9648C111.35 24.1992 111.842 24.5156 112.241 24.9141C113.108 25.7344 113.542 26.5898 113.542 27.4805C113.542 28.3711 113.425 29.2734 113.19 30.1875C112.979 31.0781 112.698 31.9922 112.346 32.9297C112.018 33.8438 111.667 34.7461 111.292 35.6367C110.917 36.5273 110.577 37.3008 110.272 37.957L109.569 39.4688C109.382 39.8438 109.335 39.9609 109.428 39.8203C112.03 36.2109 113.741 33.8906 114.561 32.8594L117.022 29.9062C118.827 27.7969 120.245 26.4023 121.276 25.7227C123.362 24.3164 125.003 23.6133 126.198 23.6133C127.393 23.6133 128.401 23.7656 129.221 24.0703C130.042 24.375 130.757 24.8086 131.366 25.3711C132.655 26.5664 133.3 28.0898 133.3 29.9414C133.3 31.793 132.878 33.7266 132.034 35.7422C131.19 37.7578 130.452 39.3984 129.819 40.6641C129.21 41.9062 128.624 43.1719 128.061 44.4609C126.303 48.375 125.425 51.2227 125.425 53.0039C125.425 53.8008 126.057 54.1992 127.323 54.1992C128.307 54.1992 129.198 53.9883 129.995 53.5664C130.815 53.1445 131.342 52.9336 131.577 52.9336C132.069 52.9336 132.315 53.1797 132.315 53.6719C132.315 55.7578 131.249 57.5039 129.116 58.9102C127.686 59.8711 126.374 60.3516 125.178 60.3516C123.983 60.3516 122.987 60.2227 122.19 59.9648C121.417 59.707 120.725 59.2969 120.116 58.7344C118.733 57.4922 118.042 55.7578 118.042 53.5312C118.042 50.8125 118.897 47.4141 120.608 43.3359C121.85 40.5469 122.729 38.6367 123.245 37.6055L124.44 35.1094C125.167 33.6094 125.53 32.4258 125.53 31.5586C125.53 30.6914 124.885 30.2578 123.596 30.2578Z" fill="white"/>
<path d="M155.899 50.7891C156.579 50.7891 156.919 51.2461 156.919 52.1602C156.919 52.9336 156.685 53.6836 156.216 54.4102C155.583 55.7695 154.317 57.0586 152.419 58.2773C150.263 59.6602 148.095 60.3516 145.915 60.3516C142.142 60.3516 139.751 58.6641 138.743 55.2891C137.548 51.2812 139.341 42.7852 144.122 29.8008C141.427 29.5664 139.962 29.0977 139.727 28.3945C139.657 28.1836 139.622 27.9609 139.622 27.7266C139.622 27.4688 139.727 27.1758 139.938 26.8477C140.173 26.5195 140.466 26.2031 140.817 25.8984C141.638 25.2188 142.47 24.8789 143.313 24.8789H146.091C148.622 18.9492 150.427 15.5742 151.505 14.7539C152.02 14.3789 152.595 14.1914 153.227 14.1914C153.86 14.1914 154.388 14.2734 154.81 14.4375C155.231 14.6016 155.606 14.8359 155.935 15.1406C156.685 15.8438 157.06 16.6289 157.06 17.4961C157.06 17.9648 156.919 18.5039 156.638 19.1133L154.036 24.7734H154.88C156.333 24.7734 157.505 24.7617 158.395 24.7383C158.395 24.7383 159.063 24.7266 160.399 24.7031C160.845 24.6797 161.395 24.668 162.052 24.668C162.731 24.668 163.071 24.9141 163.071 25.4062C163.071 28.5 159.415 30.0469 152.102 30.0469H151.821L149.431 36.2344C146.735 43.5469 145.388 48.668 145.388 51.5977C145.388 52.418 145.575 53.0625 145.95 53.5312C146.325 53.9766 147.028 54.1992 148.06 54.1992C149.091 54.1992 150.028 54.0234 150.872 53.6719C151.716 53.3203 152.454 52.9336 153.087 52.5117C153.72 52.0664 154.259 51.668 154.704 51.3164C155.173 50.9648 155.571 50.7891 155.899 50.7891Z" fill="white"/>
<path d="M159.796 58.5938C159.21 57.9844 158.73 57.2109 158.355 56.2734C158.003 55.3125 157.827 54.2109 157.827 52.9688C157.827 51.7031 158.109 50.0156 158.671 47.9062C159.257 45.7969 159.995 43.3945 160.886 40.6992L163.839 31.9453C168.034 19.7578 170.46 10.3359 171.116 3.67969C171.327 1.71094 172.288 0.726562 173.999 0.726562C175.077 0.726562 175.968 0.984375 176.671 1.5C178.03 2.53125 178.687 3.67969 178.64 4.94531C178.593 6.21094 178.37 7.75781 177.972 9.58594C177.573 11.3906 177.058 13.3711 176.425 15.5273C175.792 17.6602 175.066 19.9219 174.245 22.3125L169.394 36.5859C166.605 44.6953 165.21 49.9336 165.21 52.3008C165.21 53.5664 165.726 54.1992 166.757 54.1992C167.741 54.1992 168.632 53.9883 169.429 53.5664C170.249 53.1445 170.777 52.9336 171.011 52.9336C171.503 52.9336 171.749 53.1797 171.749 53.6719C171.749 55.7578 170.683 57.5039 168.55 58.9102C167.12 59.8711 165.808 60.3516 164.613 60.3516C163.441 60.3516 162.491 60.2109 161.765 59.9297C161.038 59.6484 160.382 59.2031 159.796 58.5938Z" fill="white"/>
<path d="M174.872 56.5898C174.591 55.8164 174.451 54.9375 174.451 53.9531C174.451 52.9453 174.615 51.832 174.943 50.6133C175.294 49.3711 175.74 48.082 176.279 46.7461C176.818 45.4102 177.404 44.0391 178.037 42.6328L179.935 38.4141C182.372 33 183.275 29.7891 182.642 28.7812C182.361 28.3359 181.833 27.8906 181.06 27.4453C180.779 27.2812 180.638 27 180.638 26.6016C180.638 26.1797 180.802 25.7812 181.13 25.4062C181.482 25.0312 181.927 24.7031 182.466 24.4219C183.615 23.8828 184.763 23.6133 185.912 23.6133C187.06 23.6133 187.927 23.7422 188.513 24C189.122 24.2344 189.615 24.5391 189.99 24.9141C190.763 25.6875 191.15 26.543 191.15 27.4805C191.15 28.418 190.997 29.4727 190.693 30.6445C190.388 31.793 189.99 33.0469 189.497 34.4062C189.005 35.7656 188.466 37.1719 187.88 38.625C186.263 42.4219 185.173 44.9297 184.611 46.1484L183.31 48.8555C182.583 50.4727 182.22 51.6094 182.22 52.2656C182.22 52.9219 182.326 53.3906 182.537 53.6719C182.747 53.9297 183.122 54.0586 183.662 54.0586C184.224 54.0586 184.833 53.8477 185.49 53.4258C186.169 53.0039 186.896 52.4414 187.669 51.7383C188.443 51.0352 189.24 50.2266 190.06 49.3125C190.904 48.375 191.724 47.4023 192.521 46.3945C194.607 43.8164 196.154 41.6016 197.162 39.75C202.224 30.4219 204.908 25.5469 205.212 25.125C205.986 24.1172 206.759 23.6133 207.533 23.6133C208.33 23.6133 209.021 23.707 209.607 23.8945C210.193 24.0586 210.697 24.3047 211.119 24.6328C212.056 25.3125 212.337 26.0742 211.962 26.918C211.611 27.7617 211.177 28.9219 210.662 30.3984C206.208 43.3125 203.314 51.3633 201.978 54.5508C200.665 57.7383 199.517 60.293 198.533 62.2148C197.548 64.1602 196.388 66.1172 195.052 68.0859C193.74 70.0547 192.333 71.8477 190.833 73.4648C187.412 77.1211 184.201 79.0781 181.201 79.3359C180.052 79.4297 179.138 79.2656 178.458 78.8438C177.287 78.1406 176.701 77.4727 176.701 76.8398C176.701 76.207 177.228 75.7617 178.283 75.5039C179.361 75.2695 180.462 74.7773 181.587 74.0273C182.736 73.3008 183.837 72.4453 184.892 71.4609C187.986 68.5078 190.388 65.2969 192.099 61.8281C193.552 58.7812 194.724 55.8984 195.615 53.1797L198.357 44.8125C197.677 45.6328 196.927 46.5938 196.107 47.6953L193.576 51.0703C191.372 53.8594 189.544 55.8398 188.091 57.0117C185.326 59.2383 182.853 60.3516 180.673 60.3516C177.767 60.3516 175.833 59.0977 174.872 56.5898Z" fill="white"/>
</svg>
